<?xml version="1.0" encoding="UTF-8" standalone="no"?>
<svg
   version="1.0"
   width="500.000000pt"
   height="500.000000pt"
   viewBox="0 0 500.000000 500.000000"
   preserveAspectRatio="xMidYMid meet"
   style="width: 636.359px; height: auto;"
   id="svg21"
   sodipodi:docname="lhs-logo.svg"
   inkscape:version="1.4.3 (0d15f75042, 2025-12-25)"
   xmlns:inkscape="http://www.inkscape.org/namespaces/inkscape"
   xmlns:sodipodi="http://sodipodi.sourceforge.net/DTD/sodipodi-0.dtd"
   xmlns="http://www.w3.org/2000/svg"
   xmlns:svg="http://www.w3.org/2000/svg">
  <defs
     id="defs21" />
  <sodipodi:namedview
     id="namedview21"
     pagecolor="#ffffff"
     bordercolor="#000000"
     borderopacity="0.25"
     inkscape:showpageshadow="2"
     inkscape:pageopacity="0.0"
     inkscape:pagecheckerboard="0"
     inkscape:deskcolor="#d1d1d1"
     inkscape:document-units="pt"
     inkscape:zoom="0.91875"
     inkscape:cx="69.115646"
     inkscape:cy="500.13605"
     inkscape:window-width="1280"
     inkscape:window-height="1412"
     inkscape:window-x="0"
     inkscape:window-y="0"
     inkscape:window-maximized="0"
     inkscape:current-layer="g21" />
  <g
     transform="translate(0.000000,500.000000) scale(0.100000,-0.100000)"
     fill="#000000"
     stroke="none"
     id="g21">
    <path
       d="m 2136,3525 c -26,-14 -63,-36 -83,-50 -36,-24 -37,-24 -67,-6 -84,51 -112,61 -169,61 -73,0 -111,-16 -212,-90 -144,-104 -199,-137 -270,-160 -126,-41 -150,-56 -220,-143 -112,-138 -294,-316 -420,-412 -27,-21 -82,-52 -121,-70 -85,-39 -224,-133 -224,-151 0,-19 10,-17 35,6 11,10 68,40 125,65 152,67 184,88 290,195 103,104 327,315 400,375 25,21 109,69 187,108 104,51 169,91 240,148 53,43 105,80 115,82 10,3 29,-4 43,-15 21,-17 25,-28 25,-75 0,-95 -44,-154 -158,-212 -71,-36 -88,-55 -143,-160 -38,-72 -52,-89 -104,-124 -33,-22 -87,-66 -120,-97 -33,-31 -88,-79 -123,-106 -35,-27 -81,-63 -103,-81 -22,-17 -53,-34 -68,-38 -16,-3 -46,-21 -67,-40 -34,-29 -37,-34 -21,-40 10,-4 55,-5 100,-2 72,4 93,10 172,50 50,24 101,48 115,52 53,16 125,58 169,100 53,49 259,151 386,192 123,39 200,83 254,146 37,44 91,73 157,87 58,12 106,33 235,104 73,40 99,39 99,-3 0,-54 -11,-71 -61,-92 -46,-20 -82,-54 -156,-147 -18,-22 -56,-54 -85,-71 -29,-16 -69,-46 -88,-66 -43,-46 -235,-222 -275,-252 -16,-13 -43,-25 -60,-27 -160,-23 -224,-43 -210,-66 4,-6 67,-10 143,-10 160,0 174,5 297,97 44,32 125,91 180,130 55,40 143,112 195,162 86,82 131,112 309,215 29,17 99,74 155,126 123,116 282,211 302,179 12,-20 -46,-117 -94,-157 -28,-24 -60,-63 -76,-97 -43,-84 -64,-105 -133,-137 -35,-15 -63,-31 -63,-34 0,-23 49,-85 88,-112 80,-55 162,-141 162,-170 8.351,-19.9124 -1.8903,-36.3793 -2,-36 -25,-16 -30,-16 -98,0 l -73,18 -31,-39 c -61,-77 -84,-93 -150,-100 -62,-7 -96,-19 -96,-34 0,-4 461,-8 1025,-10 725,-1 1025,1 1025,9 0,17 -37,85 -64,117 -24,28 -60,54 -326,229 -139,92 -242,170 -319,243 -56,54 -79,65 -236,117 -71,23 -166,62 -210,86 -44,25 -134,75 -201,111 -75,42 -132,67 -151,67 -19,0 -49,-13 -76,-32 -155,-112 -225,-164 -250,-184 -38,-32 -48,-30 -120,13 -86,51 -142,97 -210,169 -62,67 -117,94 -189,94 -29,0 -41,-6 -53,-24 -27,-41 -45,-40 -82,4 -19,22 -38,40 -42,40 -5,0 -29,-11 -55,-25 z m 31,-41 c 9,-24 -14,-89 -43,-117 -30,-30 -50,-24 -78,24 -25,43 -20,55 37,82 62,30 76,32 84,11 z m 201,-35 c 3,-38 -12,-89 -26,-89 -5,0 -20,21 -33,46 l -24,45 24,20 c 35,28 55,21 59,-22 z"
       class=""
       id="path1"
       sodipodi:nodetypes="sccscccccsccccccccscccssccccccccccccscccccccscccccccccscscccccscsccccccsccccsccssccccccscccc"
       style="fill:#64bd06;fill-opacity:1" />
    <path
       d="M2469 1921 c-12 -20 -13 -31 -5 -44 15 -23 -7 -45 -28 -28 -19 16 -30 -3 -16 -29 6 -11 20 -20 30 -20 28 0 26 -29 -5 -74 -23 -35 -24 -36 -4 -36 13 0 25 11 33 32 l14 32 16 -32 c10 -19 24 -32 36 -32 18 0 18 2 -5 36 -32 46 -32 70 -1 78 24 6 40 31 31 47 -3 5 -15 3 -26 -4 -16 -10 -21 -9 -29 3 -5 9 -5 19 1 27 12 14 4 46 -14 61 -9 8 -17 3 -28 -17z"
       id="path16"
       style="fill:#64bd06;fill-opacity:1" />
    <path
       d="M1227 1819 c-577 -4 -942 -10 -948 -16 -16 -16 252 -22 1184 -29 l857 -7 0 25 c0 32 -16 38 -93 36 -34 -1 -484 -5 -1000 -9z"
       id="path17"
       style="fill:#64bd06;fill-opacity:1" />
    <path
       d="M2666 1822 c-3 -3 -6 -17 -6 -30 l0 -25 913 6 c501 4 963 10 1025 14 258 14 57 24 -599 29 -382 2 -837 6 -1011 8 -174 2 -319 2 -322 -2z"
       class=""
       id="path18"
       style="fill:#64bd06;fill-opacity:1" />
    <path
       d="M2366 1792 c-7 -13 4 -50 17 -55 19 -7 57 11 57 27 0 10 -6 13 -15 9 -9 -3 -24 2 -34 11 -11 10 -21 13 -25 8z"
       id="path19"
       style="fill:#64bd06;fill-opacity:1" />
    <path
       d="M2593 1789 c-7 -7 -23 -13 -35 -15 -13 -1 -25 -3 -27 -3 -14 -3 26 -31 46 -31 25 0 37 17 31 45 -2 13 -6 14 -15 4z"
       id="path20"
       style="fill:#64bd06;fill-opacity:1" />
    <path
       d="m 284.09787,-2207.3413 v -227.2 h -89.6 v -52.8 h 244 v 52.8 h -89.6 v 227.2 z m 398.82502,0 v -280 h 64.8 v 280 z m -192,0 v -280 h 64.8 v 280 z m 60,-114.8 v -54.8 h 136.8 v 54.8 z m 280.82525,114.8 v -280 h 211.59996 v 52 H 896.14814 v 176 h 152.39996 v 52 z m 59.6,-116.8 v -50.4 h 134.79996 v 50.4 z m 359.50026,116.8 v -280 h 64.8 v 227.2 h 140.4 v 52.8 z m 224.0126,0 124.8,-280 h 64 l 125.2,280 h -68 l -102.4,-247.2 h 25.6 l -102.8,247.2 z m 62.4,-60 17.2,-49.2 h 144 l 17.6,49.2 z m 429.6253,64.8 q -33.2,0 -61.2,-10.4 -27.6,-10.8 -48.4,-30.4 -20.4,-19.6 -32,-46 -11.2,-26.4 -11.2,-58 0,-31.6 11.2,-58 11.6,-26.4 32.4,-46 20.8,-19.6 48.8,-30 28,-10.8 61.6,-10.8 37.2,0 66.8,12.4 30,12.4 50.4,36 l -41.6,38.4 q -15.2,-16 -33.2,-23.6 -18,-8 -39.2,-8 -20.4,0 -37.2,6.4 -16.8,6.4 -29.2,18.4 -12,12 -18.8,28.4 -6.4,16.4 -6.4,36.4 0,19.6 6.4,36 6.8,16.4 18.8,28.8 12.4,12 28.8,18.4 16.8,6.4 36.8,6.4 19.2,0 37.2,-6 18.4,-6.4 35.6,-21.2 l 36.8,46.8 q -22.8,17.2 -53.2,26.4 -30,9.2 -60,9.2 z m 113.2,-35.6 -59.2,-8.4 v -105.2 h 59.2 z m 202.0249,35.6 q -59.6,0 -93.2,-33.2 -33.6,-33.2 -33.6,-94.8 v -156.8 h 64.8 v 154.4 q 0,40 16.4,57.6 16.4,17.6 46,17.6 29.6,0 46,-17.6 16.4,-17.6 16.4,-57.6 v -154.4 h 64 v 156.8 q 0,61.6 -33.6,94.8 -33.6,33.2 -93.2,33.2 z m 208.4251,-4.8 v -280 h 53.6 l 165.2,201.6 h -26 v -201.6 h 64 v 280 h -53.2 l -165.6,-201.6 h 26 v 201.6 z m 304.0252,0 124.8,-280 h 64 l 125.2,280 h -68 l -102.4,-247.2 h 25.6 l -102.8,247.2 z m 62.4,-60 17.2,-49.2 h 144 l 17.6,49.2 z m 623.5006,60 v -280 h 64.8 v 280 z m -192,0 v -280 h 64.8 v 280 z m 60,-114.8 v -54.8 h 136.8 v 54.8 z m 280.8252,114.8 v -280 h 64.8 v 280 z m 148.8247,0 v -280 h 64.8 v 227.2 h 140.4 v 52.8 z m 259.2251,0 v -280 h 64.8 v 227.2 h 140.4 v 52.8 z m 349.7776,4.8 q -33.6,0 -64.4,-8.8 -30.8,-9.2 -49.6,-23.6 l 22,-48.8 q 18,12.8 42.4,21.2 24.8,8 50,8 19.2,0 30.8,-3.6 12,-4 17.6,-10.8 5.6,-6.8 5.6,-15.6 0,-11.2 -8.8,-17.6 -8.8,-6.8 -23.2,-10.8 -14.4,-4.4 -32,-8 -17.2,-4 -34.8,-9.6 -17.2,-5.6 -31.6,-14.4 -14.4,-8.8 -23.6,-23.2 -8.8,-14.4 -8.8,-36.8 0,-24 12.8,-43.6 13.2,-20 39.2,-31.6 26.4,-12 66,-12 26.4,0 52,6.4 25.6,6 45.2,18.4 l -20,49.2 q -19.6,-11.2 -39.2,-16.4 -19.6,-5.6 -38.4,-5.6 -18.8,0 -30.8,4.4 -12,4.4 -17.2,11.6 -5.2,6.8 -5.2,16 0,10.8 8.8,17.6 8.8,6.4 23.2,10.4 14.4,4 31.6,8 17.6,4 34.8,9.2 17.6,5.2 32,14 14.4,8.8 23.2,23.2 9.2,14.4 9.2,36.4 0,23.6 -13.2,43.2 -13.2,19.6 -39.6,31.6 -26,12 -66,12 z"
       id="text21"
       style="font-size:400px;line-height:0;font-family:Montserrat;-inkscape-font-specification:'Montserrat, @wght=700';font-variation-settings:'wght' 700;letter-spacing:17.625px;word-spacing:2.25px;fill:#33534e;stroke-width:7.23375"
       transform="scale(1.0599774,-0.94341635)"
       aria-label="THE LAGUNA HILLS" />
  </g>
</svg>
